<svg width="611" height="186" viewBox="0 0 611 186" fill="none" xmlns="http://www.w3.org/2000/svg">
<g clip-path="url(#clip0_1_4)">
<path d="M273.26 50.1262V148.974H244.965V139.125C241.081 143.08 236.432 146.203 231.302 148.301C226.172 150.399 220.668 151.43 215.127 151.329C188.002 151.329 167.459 129.042 167.459 99.5774C167.459 70.1133 188.002 47.7983 215.127 47.7983C220.669 47.6944 226.174 48.7232 231.304 50.8217C236.435 52.9202 241.083 56.0443 244.965 60.0027V50.1262H273.26ZM244.965 99.5499C244.965 85.5961 234.693 75.1273 220.745 75.1273C206.797 75.1273 196.718 85.5961 196.718 99.5499C196.718 113.504 206.99 123.972 220.745 123.972C234.5 123.972 244.965 113.504 244.965 99.5499Z" fill="#FBF9F4"/>
<path d="M396.548 178.052L367.412 185.959C366.641 179.567 361.216 175.297 353.272 175.297H322.47C303.29 175.297 290.691 164.277 290.691 147.748C290.691 137.279 295.924 127.196 304.254 122.154C300.1 118.178 296.805 113.392 294.572 108.092C292.339 102.793 291.215 97.0913 291.27 91.3401C291.27 66.339 311.235 47.7294 337.974 47.7294C345.056 47.7378 352.07 49.1177 358.628 51.7929C361.602 41.2002 371.488 34.4368 385.05 34.4368H393.381V60.6088H386.4C381.76 60.6088 378.07 62.9367 377.106 66.6283C382.195 73.89 384.904 82.5541 384.858 91.4228C384.858 116.424 364.7 135.034 338.043 135.034C333.128 135.085 328.232 134.431 323.503 133.091C322.185 133.875 321.086 134.979 320.309 136.301C319.531 137.623 319.1 139.12 319.056 140.654C319.056 145.117 322.732 148.023 327.964 148.023H358.765C378.648 148.009 392.802 159.057 396.548 178.052ZM320.405 91.409C320.405 101.051 327.964 108.269 338.043 108.269C348.122 108.269 355.86 101.093 355.86 91.409C355.86 81.7254 348.108 74.5488 338.043 74.5488C327.703 74.5488 320.336 81.7116 320.336 91.409H320.405Z" fill="#FBF9F4"/>
<path d="M561.363 84.4253V148.974H533.081V92.9518C533.081 82.3039 526.293 75.1273 515.829 75.1273C504.979 75.1273 497.433 82.4968 497.433 93.3513V148.974H469.138V92.9518C469.138 82.3039 462.363 75.1273 451.899 75.1273C441.049 75.1273 433.49 82.4968 433.49 93.3513V148.974H405.208V50.1262H433.49V59.617C440.663 51.8618 450.15 47.7983 461.579 47.7983C474.948 47.7983 485.606 53.4184 491.87 63.102C499.815 53.0327 510.996 47.7983 524.751 47.7983C547.029 47.7983 561.363 62.3306 561.363 84.4253Z" fill="#FBF9F4"/>
<path d="M610.435 47.7983H582.154V148.974H610.435V47.7983Z" fill="#FBF9F4"/>
<path d="M567.807 27.88H184.546L113.36 148.974H82.5315L86.4556 53.6525L33.3899 148.974H0L0.9776 2.82382H29.2867L28.075 101.106L84.2388 2.82382H115.536L111.488 101.106L168.932 2.82382H567.807V27.88Z" fill="#FBF9F4"/>
<path d="M603.606 0H587.62C583.537 0 580.226 3.31176 580.226 7.39702V23.3895C580.226 27.4747 583.537 30.7865 587.62 30.7865H603.606C607.69 30.7865 611 27.4747 611 23.3895V7.39702C611 3.31176 607.69 0 603.606 0Z" fill="#FBF9F4"/>
</g>
<defs>
<clipPath id="clip0_1_4">
<rect width="611" height="186" fill="white"/>
</clipPath>
</defs>
</svg>
